<svg xmlns="http://www.w3.org/2000/svg" width="238.016" height="73.496" viewBox="0 0 238.016 73.496">
  <g id="Samir_Logo-01" transform="translate(-3.43 -12.9)">
    <path id="Path_320" data-name="Path 320" d="M23.178,12.9v7.014h-.554A8.755,8.755,0,0,0,21.66,16.7a5.036,5.036,0,0,0-1.978-1.9,5.493,5.493,0,0,0-2.661-.7,3.626,3.626,0,0,0-2.577.949,2.885,2.885,0,0,0-1.017,2.16,2.562,2.562,0,0,0,.644,1.69,16.318,16.318,0,0,0,4.412,2.991,30.564,30.564,0,0,1,3.88,2.342,5.7,5.7,0,0,1,1.6,1.92,5.065,5.065,0,0,1,.56,2.318,5.251,5.251,0,0,1-1.786,3.971,6.47,6.47,0,0,1-4.6,1.668,9.683,9.683,0,0,1-1.659-.134,17.2,17.2,0,0,1-1.925-.547,8.425,8.425,0,0,0-1.846-.47.782.782,0,0,0-.591.22,1.77,1.77,0,0,0-.321.927h-.552v-6.95H11.8a9.7,9.7,0,0,0,1.046,3.267,5.012,5.012,0,0,0,2.011,1.8,6.234,6.234,0,0,0,2.969.719,4.225,4.225,0,0,0,2.953-.987,3.056,3.056,0,0,0,1.085-2.331,3.151,3.151,0,0,0-.411-1.51,4.509,4.509,0,0,0-1.279-1.422q-.584-.439-3.186-1.905a31.784,31.784,0,0,1-3.7-2.329,6.256,6.256,0,0,1-1.668-1.914,4.737,4.737,0,0,1-.569-2.3,5,5,0,0,1,1.674-3.762A5.985,5.985,0,0,1,16.986,12.9a8.537,8.537,0,0,1,3.426.793,3.542,3.542,0,0,0,1.173.374.879.879,0,0,0,.637-.233,1.847,1.847,0,0,0,.4-.934Z" transform="translate(-5.945 0)" fill="#816e66"/>
    <path id="Path_321" data-name="Path 321" d="M94.762,26.853H86.911l-1.376,3.208a5.013,5.013,0,0,0-.51,1.758,1.022,1.022,0,0,0,.439.815,3.851,3.851,0,0,0,1.907.457v.554H81v-.554a3.434,3.434,0,0,0,1.644-.582,9.12,9.12,0,0,0,1.69-2.918L91.457,12.9h.53l7.058,16.869a7.816,7.816,0,0,0,1.538,2.637,3.149,3.149,0,0,0,1.936.681v.554h-8v-.554a2.981,2.981,0,0,0,1.637-.4,1.035,1.035,0,0,0,.426-.837,6.2,6.2,0,0,0-.6-2.079Zm-.417-1.1-3.441-8.2-3.531,8.194Z" transform="translate(-60.526 0)" fill="#816e66"/>
    <path id="Path_322" data-name="Path 322" d="M194.854,35.281l-7.836-17.064V31.768a4.14,4.14,0,0,0,.4,2.331,2.228,2.228,0,0,0,1.758.628h.719v.554H182.83v-.554h.719a2.059,2.059,0,0,0,1.824-.778,4.52,4.52,0,0,0,.33-2.182V18.516a4.627,4.627,0,0,0-.3-1.945,1.648,1.648,0,0,0-.771-.725,4.077,4.077,0,0,0-1.8-.292V15h5.75l7.357,15.867L203.168,15h5.744v.554h-.7a2.073,2.073,0,0,0-1.839.778,4.527,4.527,0,0,0-.33,2.184v13.25a4.013,4.013,0,0,0,.42,2.331,2.228,2.228,0,0,0,1.758.628h.7v.554h-8.613v-.554h.716a2.038,2.038,0,0,0,1.826-.778,4.547,4.547,0,0,0,.327-2.182V18.217l-7.829,17.064Z" transform="translate(-139.98 -1.639)" fill="#816e66"/>
    <path id="Path_323" data-name="Path 323" d="M316.618,34.727v.554H307.93v-.554h.716A2.174,2.174,0,0,0,310.472,34a4.6,4.6,0,0,0,.358-2.3V18.59a6.674,6.674,0,0,0-.2-2.033,1.338,1.338,0,0,0-.613-.644,2.824,2.824,0,0,0-1.376-.358h-.716V15h8.688v.554h-.734a2.147,2.147,0,0,0-1.808.732,4.376,4.376,0,0,0-.374,2.3V31.7a6.728,6.728,0,0,0,.193,2.035,1.347,1.347,0,0,0,.628.644,2.749,2.749,0,0,0,1.36.358Z" transform="translate(-237.592 -1.639)" fill="#816e66"/>
    <path id="Path_324" data-name="Path 324" d="M373.426,35.281h-5.414L361.147,25.8c-.508.02-.923.031-1.241.031h-.42a3.339,3.339,0,0,1-.464-.022V31.7a4.137,4.137,0,0,0,.42,2.38,2.126,2.126,0,0,0,1.705.659h.793v.554h-8.69v-.554h.765a2.04,2.04,0,0,0,1.839-.837,4.728,4.728,0,0,0,.314-2.2V18.59a4.139,4.139,0,0,0-.42-2.377,2.192,2.192,0,0,0-1.734-.659h-.765V15h7.39a17.582,17.582,0,0,1,4.762.47,5.438,5.438,0,0,1,2.6,1.736,4.5,4.5,0,0,1,1.07,3.013,4.729,4.729,0,0,1-1.219,3.245,6.862,6.862,0,0,1-3.775,1.945l4.188,5.816a10.378,10.378,0,0,0,2.468,2.672,6.188,6.188,0,0,0,2.692.837Zm-14.4-10.424h.839a6.582,6.582,0,0,0,4.373-1.257,4.019,4.019,0,0,0,1.485-3.184,4.14,4.14,0,0,0-1.189-3.076,4.322,4.322,0,0,0-3.149-1.191,13.3,13.3,0,0,0-2.349.286Z" transform="translate(-272.954 -1.639)" fill="#816e66"/>
    <path id="Path_325" data-name="Path 325" d="M16.674,154.279,8.838,137.215v13.549a4.146,4.146,0,0,0,.4,2.334,2.228,2.228,0,0,0,1.758.628h.719v.554H4.65v-.554h.719a2.059,2.059,0,0,0,1.824-.778,4.535,4.535,0,0,0,.33-2.184V137.516a4.646,4.646,0,0,0-.3-1.945,1.67,1.67,0,0,0-.771-.725,4.148,4.148,0,0,0-1.8-.29V134h5.744l7.357,15.867L24.988,134h5.744v.554h-.7a2.076,2.076,0,0,0-1.839.776,4.543,4.543,0,0,0-.33,2.184v13.25a4.018,4.018,0,0,0,.42,2.334,2.228,2.228,0,0,0,1.758.628h.7v.554H22.119v-.554h.716a2.038,2.038,0,0,0,1.826-.778,4.543,4.543,0,0,0,.327-2.184V137.215l-7.82,17.064Z" transform="translate(-0.952 -94.491)" fill="#fff"/>
    <path id="Path_326" data-name="Path 326" d="M141.135,145.819h-7.851l-1.378,3.21a5.091,5.091,0,0,0-.508,1.758,1.022,1.022,0,0,0,.439.815,3.851,3.851,0,0,0,1.907.457v.554H127.36v-.554a3.365,3.365,0,0,0,1.646-.584,9.086,9.086,0,0,0,1.69-2.916l7.135-16.7h.523l7.058,16.869a7.626,7.626,0,0,0,1.549,2.637,3.132,3.132,0,0,0,1.936.681v.554H140.9v-.554a3,3,0,0,0,1.637-.4,1.035,1.035,0,0,0,.426-.837,6.2,6.2,0,0,0-.6-2.079Zm-.42-1.1-3.439-8.2-3.529,8.2Z" transform="translate(-96.699 -92.821)" fill="#fff"/>
    <path id="Path_327" data-name="Path 327" d="M232.5,134l.22,4.755h-.569a5.784,5.784,0,0,0-.439-1.8,3,3,0,0,0-1.233-1.277,4.3,4.3,0,0,0-2.028-.413H225.6v15.493a4.146,4.146,0,0,0,.4,2.334,2.256,2.256,0,0,0,1.758.628h.7v.554h-8.611v-.554h.719a2.059,2.059,0,0,0,1.824-.778,4.535,4.535,0,0,0,.33-2.184V135.27h-2.439a6.492,6.492,0,0,0-2.019.22,2.773,2.773,0,0,0-1.329,1.1,4.429,4.429,0,0,0-.659,2.184h-.567l.24-4.773Z" transform="translate(-165.636 -94.491)" fill="#fff"/>
    <path id="Path_328" data-name="Path 328" d="M317.667,134l.22,4.755h-.569a5.783,5.783,0,0,0-.439-1.8,3,3,0,0,0-1.233-1.277,4.3,4.3,0,0,0-2.028-.413h-2.856v15.493a4.146,4.146,0,0,0,.4,2.334,2.26,2.26,0,0,0,1.758.628h.7v.554h-8.609v-.554h.725a2.059,2.059,0,0,0,1.824-.778,4.535,4.535,0,0,0,.33-2.184V135.27h-2.439a6.482,6.482,0,0,0-2.017.22,2.766,2.766,0,0,0-1.332,1.1,4.428,4.428,0,0,0-.659,2.184h-.567l.233-4.773Z" transform="translate(-232.091 -94.491)" fill="#fff"/>
    <path id="Path_329" data-name="Path 329" d="M385.473,145.819h-7.851l-1.376,3.21a5.058,5.058,0,0,0-.51,1.758,1.022,1.022,0,0,0,.439.815,3.851,3.851,0,0,0,1.907.457v.554H371.7v-.554a3.43,3.43,0,0,0,1.644-.584,9.086,9.086,0,0,0,1.69-2.916l7.135-16.7h.523l7.058,16.869a7.672,7.672,0,0,0,1.549,2.637,3.184,3.184,0,0,0,1.936.681v.554h-8v-.554a3,3,0,0,0,1.637-.4,1.035,1.035,0,0,0,.426-.837,6.2,6.2,0,0,0-.6-2.079Zm-.42-1.1-3.439-8.2-3.529,8.2Z" transform="translate(-287.35 -92.821)" fill="#fff"/>
    <path id="Path_330" data-name="Path 330" d="M493.823,154.279h-5.414l-6.862-9.481c-.51.02-.923.029-1.241.029h-.42c-.149,0-.3-.013-.464-.022v5.9a4.125,4.125,0,0,0,.42,2.377,2.126,2.126,0,0,0,1.705.659h.791v.554H473.65v-.554h.762a2.04,2.04,0,0,0,1.839-.837,4.756,4.756,0,0,0,.314-2.2V137.588a4.143,4.143,0,0,0-.418-2.377,2.2,2.2,0,0,0-1.736-.659h-.762V134h7.387a17.608,17.608,0,0,1,4.764.47,5.438,5.438,0,0,1,2.6,1.736,4.516,4.516,0,0,1,1.07,3.013,4.733,4.733,0,0,1-1.22,3.245,6.913,6.913,0,0,1-3.777,1.945l4.192,5.816a10.38,10.38,0,0,0,2.463,2.672,6.256,6.256,0,0,0,2.692.837Zm-14.4-10.424h.837a6.591,6.591,0,0,0,4.375-1.257,4.016,4.016,0,0,0,1.472-3.2,4.179,4.179,0,0,0-1.189-3.089,4.253,4.253,0,0,0-3.146-1.189,13.213,13.213,0,0,0-2.349.283Z" transform="translate(-366.898 -94.491)" fill="#fff"/>
    <path id="Path_331" data-name="Path 331" d="M17.2,264.768H9.352l-1.376,3.2a5.1,5.1,0,0,0-.51,1.758,1.026,1.026,0,0,0,.439.815A3.84,3.84,0,0,0,9.813,271v.554H3.43V271a3.431,3.431,0,0,0,1.646-.582,9.176,9.176,0,0,0,1.69-2.916L13.9,250.8h.523l7.06,16.871a7.75,7.75,0,0,0,1.538,2.637,3.131,3.131,0,0,0,1.936.679v.554h-8v-.554a3.014,3.014,0,0,0,1.639-.4,1.046,1.046,0,0,0,.424-.839,6.142,6.142,0,0,0-.6-2.076Zm-.417-1.1-3.441-8.211-3.529,8.2Z" transform="translate(0 -185.626)" fill="#fff"/>
    <path id="Path_332" data-name="Path 332" d="M123.838,250.87v7.016h-.554a8.776,8.776,0,0,0-.965-3.217,5.017,5.017,0,0,0-1.978-1.9,5.493,5.493,0,0,0-2.661-.7,3.626,3.626,0,0,0-2.573.949,2.887,2.887,0,0,0-1.017,2.162,2.567,2.567,0,0,0,.644,1.69,16.561,16.561,0,0,0,4.412,2.991,30.8,30.8,0,0,1,3.88,2.34,5.713,5.713,0,0,1,1.6,1.92,5.071,5.071,0,0,1,.549,2.318,5.247,5.247,0,0,1-1.786,3.971,6.47,6.47,0,0,1-4.6,1.668,9.684,9.684,0,0,1-1.659-.134,16.725,16.725,0,0,1-1.923-.547,8.708,8.708,0,0,0-1.846-.47.78.78,0,0,0-.591.22,1.787,1.787,0,0,0-.323.927H111.9v-6.95h.552a9.825,9.825,0,0,0,1.048,3.27,5.027,5.027,0,0,0,2.011,1.8,6.261,6.261,0,0,0,2.969.719,4.214,4.214,0,0,0,2.953-.989,3.054,3.054,0,0,0,1.085-2.325,3.164,3.164,0,0,0-.411-1.512,4.534,4.534,0,0,0-1.279-1.422q-.582-.439-3.186-1.905a32.045,32.045,0,0,1-3.7-2.325,6.263,6.263,0,0,1-1.668-1.916,4.731,4.731,0,0,1-.569-2.3,5,5,0,0,1,1.674-3.762,5.99,5.99,0,0,1,4.263-1.578,8.569,8.569,0,0,1,3.426.793,3.489,3.489,0,0,0,1.18.374.9.9,0,0,0,.637-.231,1.856,1.856,0,0,0,.4-.936Z" transform="translate(-84.487 -185.681)" fill="#fff"/>
    <path id="Path_333" data-name="Path 333" d="M201.358,250.87v7.016H200.8a8.776,8.776,0,0,0-.965-3.217,5.017,5.017,0,0,0-1.978-1.9,5.493,5.493,0,0,0-2.661-.7,3.621,3.621,0,0,0-2.573.949,2.887,2.887,0,0,0-1.017,2.162,2.567,2.567,0,0,0,.644,1.69,16.56,16.56,0,0,0,4.412,2.991,30.8,30.8,0,0,1,3.88,2.34,5.713,5.713,0,0,1,1.6,1.92,5.071,5.071,0,0,1,.56,2.318,5.247,5.247,0,0,1-1.786,3.971,6.47,6.47,0,0,1-4.6,1.668,9.666,9.666,0,0,1-1.659-.134,16.59,16.59,0,0,1-1.923-.547,8.716,8.716,0,0,0-1.848-.47.778.778,0,0,0-.589.22,1.787,1.787,0,0,0-.323.927h-.552v-6.95h.552a9.824,9.824,0,0,0,1.048,3.27,5.012,5.012,0,0,0,2.011,1.8,6.261,6.261,0,0,0,2.969.719,4.219,4.219,0,0,0,2.953-.989,3.054,3.054,0,0,0,1.081-2.325,3.19,3.19,0,0,0-.411-1.512,4.533,4.533,0,0,0-1.279-1.422q-.584-.439-3.186-1.905a31.734,31.734,0,0,1-3.7-2.331,6.284,6.284,0,0,1-1.666-1.916,4.731,4.731,0,0,1-.569-2.3,5,5,0,0,1,1.674-3.762,5.98,5.98,0,0,1,4.263-1.578,8.583,8.583,0,0,1,3.426.793,3.489,3.489,0,0,0,1.18.374.9.9,0,0,0,.637-.231,1.813,1.813,0,0,0,.4-.936Z" transform="translate(-144.973 -185.681)" fill="#fff"/>
    <path id="Path_334" data-name="Path 334" d="M272.9,264.768h-7.851l-1.376,3.2a5.046,5.046,0,0,0-.51,1.758,1.026,1.026,0,0,0,.439.815,3.84,3.84,0,0,0,1.907.455v.554H259.13V271a3.411,3.411,0,0,0,1.644-.582,9.121,9.121,0,0,0,1.69-2.916l7.135-16.7h.523l7.058,16.871a7.7,7.7,0,0,0,1.549,2.637,3.156,3.156,0,0,0,1.936.679v.554h-8v-.554a3,3,0,0,0,1.637-.4,1.041,1.041,0,0,0,.426-.839,6.142,6.142,0,0,0-.6-2.076Zm-.418-1.1-3.441-8.211-3.529,8.2Z" transform="translate(-199.515 -185.626)" fill="#fff"/>
    <path id="Path_335" data-name="Path 335" d="M361.08,273.275v-.554h.762a2.014,2.014,0,0,0,1.824-.822,4.681,4.681,0,0,0,.33-2.213v-13.1a4.2,4.2,0,0,0-.417-2.378,2.2,2.2,0,0,0-1.736-.659h-.762V253h8.255a18.018,18.018,0,0,1,6.917,1.033,8.233,8.233,0,0,1,3.812,3.439,10.639,10.639,0,0,1,1.444,5.564,10.143,10.143,0,0,1-2.573,7.073q-2.887,3.171-8.789,3.171Zm5.788-1.466a15.275,15.275,0,0,0,3.186.42,7.566,7.566,0,0,0,5.757-2.437,10.718,10.718,0,0,0,0-13.237,7.7,7.7,0,0,0-5.878-2.417,12.654,12.654,0,0,0-3.065.439Z" transform="translate(-279.063 -187.343)" fill="#fff"/>
    <path id="Path_336" data-name="Path 336" d="M694.016,163.689h-3.76l-.659,1.538a2.416,2.416,0,0,0-.244.844.49.49,0,0,0,.22.391,1.844,1.844,0,0,0,.914.22v.266H687.42v-.279a1.646,1.646,0,0,0,.789-.279,4.435,4.435,0,0,0,.809-1.4L692.434,157h.25l3.379,8.079a3.734,3.734,0,0,0,.74,1.263,1.5,1.5,0,0,0,.927.325v.266H693.9v-.266a1.444,1.444,0,0,0,.784-.193.5.5,0,0,0,.2-.4,2.946,2.946,0,0,0-.286-1Zm-.2-.53-1.655-3.924-1.683,3.918Z" transform="translate(-533.697 -112.437)" fill="#816e66"/>
    <path id="Path_337" data-name="Path 337" d="M736.24,167.721v-.272h.367a.96.96,0,0,0,.879-.393,2.233,2.233,0,0,0,.158-1.059v-6.267a2.007,2.007,0,0,0-.2-1.14,1.057,1.057,0,0,0-.831-.314h-.367V158H740.2a8.63,8.63,0,0,1,3.311.494,3.926,3.926,0,0,1,1.826,1.648,5.076,5.076,0,0,1,.692,2.663,4.859,4.859,0,0,1-1.233,3.388,5.423,5.423,0,0,1-4.21,1.518Zm2.773-.7a7.3,7.3,0,0,0,1.525.2,3.619,3.619,0,0,0,2.758-1.169,5.118,5.118,0,0,0,0-6.337,3.7,3.7,0,0,0-2.815-1.16,6.082,6.082,0,0,0-1.468.209Z" transform="translate(-571.789 -113.217)" fill="#816e66"/>
    <path id="Path_338" data-name="Path 338" d="M794.183,158v.266a1.556,1.556,0,0,0-.78.33,2.955,2.955,0,0,0-.675,1.074l-3.386,8.264h-.266l-3.639-8.372a4.5,4.5,0,0,0-.393-.789,1.259,1.259,0,0,0-.439-.347,2.065,2.065,0,0,0-.705-.16V158h3.977v.266a2.012,2.012,0,0,0-.879.22.523.523,0,0,0-.2.422,3.244,3.244,0,0,0,.33,1.118l2.472,5.693,2.292-5.621a3.785,3.785,0,0,0,.336-1.154.547.547,0,0,0-.209-.4,1.336,1.336,0,0,0-.7-.268,1.24,1.24,0,0,0-.123-.022V158Z" transform="translate(-608.977 -113.217)" fill="#816e66"/>
    <path id="Path_339" data-name="Path 339" d="M838.709,157a4.405,4.405,0,0,1,3.276,1.437,4.96,4.96,0,0,1,1.384,3.584,5.113,5.113,0,0,1-1.4,3.674,4.667,4.667,0,0,1-6.75.035,5.108,5.108,0,0,1-1.365-3.687,4.915,4.915,0,0,1,1.575-3.775A4.656,4.656,0,0,1,838.709,157Zm-.136.523a2.564,2.564,0,0,0-2.092.967A5.45,5.45,0,0,0,835.5,162a5.762,5.762,0,0,0,1.017,3.659,2.514,2.514,0,0,0,2.063.976,2.815,2.815,0,0,0,2.259-1.068,5.187,5.187,0,0,0,.892-3.366,5.879,5.879,0,0,0-.982-3.718,2.636,2.636,0,0,0-2.175-.958Z" transform="translate(-647.959 -112.434)" fill="#816e66"/>
    <path id="Path_340" data-name="Path 340" d="M890.458,157l.22,3.3h-.22a4.106,4.106,0,0,0-1.268-2.134,3.219,3.219,0,0,0-4.953,1.4,6.961,6.961,0,0,0-.439,2.672,5.687,5.687,0,0,0,.422,2.285A3.167,3.167,0,0,0,885.492,166a3.641,3.641,0,0,0,1.938.516,3.353,3.353,0,0,0,1.668-.4,5.509,5.509,0,0,0,1.591-1.608l.22.143a5.078,5.078,0,0,1-1.705,1.9,4.307,4.307,0,0,1-2.314.6,4.365,4.365,0,0,1-3.735-1.791,5.115,5.115,0,0,1-.989-3.136,5.565,5.565,0,0,1,.659-2.672,4.715,4.715,0,0,1,1.793-1.887A4.852,4.852,0,0,1,887.1,157a4.561,4.561,0,0,1,2.076.516,1.125,1.125,0,0,0,.439.158.475.475,0,0,0,.336-.136,1.1,1.1,0,0,0,.264-.538Z" transform="translate(-685.65 -112.436)" fill="#816e66"/>
    <path id="Path_341" data-name="Path 341" d="M931.356,163.689H927.6l-.659,1.538a2.42,2.42,0,0,0-.244.844.49.49,0,0,0,.22.391,1.852,1.852,0,0,0,.914.22v.266H924.76v-.279a1.646,1.646,0,0,0,.789-.279,4.434,4.434,0,0,0,.809-1.4L929.774,157h.251l3.379,8.086a3.731,3.731,0,0,0,.741,1.263,1.5,1.5,0,0,0,.929.319v.266h-3.832v-.266a1.444,1.444,0,0,0,.784-.193.5.5,0,0,0,.2-.4,2.968,2.968,0,0,0-.288-1Zm-.2-.53-1.648-3.924-1.69,3.918Z" transform="translate(-718.886 -112.437)" fill="#816e66"/>
    <path id="Path_342" data-name="Path 342" d="M983.163,157l.22,3.3h-.22a4.107,4.107,0,0,0-1.268-2.134,3.076,3.076,0,0,0-1.978-.659,3.214,3.214,0,0,0-1.758.49,3.259,3.259,0,0,0-1.228,1.564,7.006,7.006,0,0,0-.44,2.672,5.689,5.689,0,0,0,.422,2.285,3.155,3.155,0,0,0,1.277,1.494,3.639,3.639,0,0,0,1.936.516,3.362,3.362,0,0,0,1.67-.4,5.489,5.489,0,0,0,1.589-1.608l.22.143a5.077,5.077,0,0,1-1.7,1.9,4.312,4.312,0,0,1-2.314.6,4.364,4.364,0,0,1-3.735-1.791,5.128,5.128,0,0,1-.987-3.136,5.562,5.562,0,0,1,.659-2.672,4.719,4.719,0,0,1,1.8-1.887,4.847,4.847,0,0,1,2.485-.67,4.561,4.561,0,0,1,2.076.516,1.119,1.119,0,0,0,.44.158.481.481,0,0,0,.338-.136,1.126,1.126,0,0,0,.264-.538Z" transform="translate(-757.981 -112.437)" fill="#816e66"/>
    <path id="Path_343" data-name="Path 343" d="M1022.792,167.448v.266h-4.162v-.266h.343a1.037,1.037,0,0,0,.879-.349,2.181,2.181,0,0,0,.171-1.1v-6.271a3.253,3.253,0,0,0-.092-.976.644.644,0,0,0-.294-.308,1.354,1.354,0,0,0-.659-.171h-.343V158h4.162v.266h-.349a1.03,1.03,0,0,0-.879.352,2.1,2.1,0,0,0-.178,1.1v6.273a3.239,3.239,0,0,0,.092.973.66.66,0,0,0,.3.308,1.319,1.319,0,0,0,.659.171Z" transform="translate(-792.13 -113.217)" fill="#816e66"/>
    <path id="Path_344" data-name="Path 344" d="M1046.345,163.689h-3.76l-.659,1.538a2.4,2.4,0,0,0-.242.844.49.49,0,0,0,.22.391,1.842,1.842,0,0,0,.912.22v.266h-3.057v-.279a1.634,1.634,0,0,0,.787-.279,4.322,4.322,0,0,0,.809-1.4l3.408-7.994h.25l3.382,8.079a3.662,3.662,0,0,0,.741,1.263,1.5,1.5,0,0,0,.927.325v.266h-3.832v-.266a1.443,1.443,0,0,0,.784-.193.5.5,0,0,0,.2-.4,2.948,2.948,0,0,0-.286-1Zm-.2-.53-1.646-3.924-1.692,3.924Z" transform="translate(-808.617 -112.437)" fill="#816e66"/>
    <line id="Line_44" data-name="Line 44" y2="50.11" transform="translate(140.267 24.594)" fill="none" stroke="#816e66" stroke-miterlimit="10" stroke-width="2"/>
  </g>
</svg>
